<?xml version="1.0" encoding="UTF-8"?> <svg xmlns="http://www.w3.org/2000/svg" width="230" height="120" viewBox="0 0 230 120" fill="none"><path d="M1 38.3827C39.6667 16.716 129.6 -18.4173 180 14.3827C230.4 47.1827 309 28.0494 342 14.3827" stroke="#11AB20" stroke-opacity="0.8"></path><path d="M1 51.7655C39.6667 30.0988 129.6 -5.03449 180 27.7655C230.4 60.5655 309 41.4322 342 27.7655" stroke="#11AB20" stroke-opacity="0.8"></path><path d="M1 65.1483C39.6667 43.4817 129.6 8.34832 180 41.1483C230.4 73.9483 309 54.815 342 41.1483" stroke="#11AB20" stroke-opacity="0.8"></path><path d="M1 78.5311C39.6667 56.8645 129.6 21.7311 180 54.5311C230.4 87.3311 309 68.1978 342 54.5311" stroke="#11AB20" stroke-opacity="0.8"></path><path d="M1 91.9139C39.6667 70.2473 129.6 35.1139 180 67.9139C230.4 100.714 309 81.5806 342 67.9139" stroke="#11AB20" stroke-opacity="0.8"></path><path d="M1 105.297C39.6667 83.6301 129.6 48.4968 180 81.2968C230.4 114.097 309 94.9634 342 81.2968" stroke="#11AB20" stroke-opacity="0.8"></path><path d="M1 118.68C39.6667 97.0129 129.6 61.8796 180 94.6796C230.4 127.48 309 108.346 342 94.6796" stroke="#11AB20" stroke-opacity="0.8"></path><circle cx="183" cy="17" r="12" fill="#11AB20"></circle><circle cx="183" cy="17" r="11.5" stroke="#11AB20" stroke-opacity="0.8"></circle></svg> 