<?xml version="1.0" encoding="UTF-8"?> <svg xmlns="http://www.w3.org/2000/svg" width="285" height="120" viewBox="0 0 285 120" fill="none"><path d="M-57 38.3827C-18.3333 16.716 71.6 -18.4173 122 14.3827C172.4 47.1827 251 28.0494 284 14.3827" stroke="#11AB20" stroke-opacity="0.6"></path><path d="M-57 51.7655C-18.3333 30.0988 71.6 -5.03449 122 27.7655C172.4 60.5655 251 41.4322 284 27.7655" stroke="#11AB20" stroke-opacity="0.6"></path><path d="M-57 65.1483C-18.3333 43.4817 71.6 8.34832 122 41.1483C172.4 73.9483 251 54.815 284 41.1483" stroke="#11AB20" stroke-opacity="0.6"></path><path d="M-57 78.5311C-18.3333 56.8645 71.6 21.7311 122 54.5311C172.4 87.3311 251 68.1978 284 54.5311" stroke="#11AB20" stroke-opacity="0.6"></path><path d="M-57 91.9139C-18.3333 70.2473 71.6 35.1139 122 67.9139C172.4 100.714 251 81.5806 284 67.9139" stroke="#11AB20" stroke-opacity="0.6"></path><path d="M-57 105.297C-18.3333 83.6301 71.6 48.4968 122 81.2968C172.4 114.097 251 94.9634 284 81.2968" stroke="#11AB20" stroke-opacity="0.6"></path><path d="M-57 118.68C-18.3333 97.0129 71.6 61.8796 122 94.6796C172.4 127.48 251 108.346 284 94.6796" stroke="#11AB20" stroke-opacity="0.6"></path></svg> 