<?xml version="1.0" encoding="UTF-8"?> <svg xmlns="http://www.w3.org/2000/svg" width="1120" height="646" viewBox="0 0 1120 646" fill="none"><path fill-rule="evenodd" clip-rule="evenodd" d="M111.902 0.376493H0.391722V107.552H100.35L111.902 96.4482V0.376493ZM123.763 107.552L112.359 96.5914V0.376493H223.869V107.552H123.763ZM112.359 118.788L123.593 107.991H223.869V215.166H112.359V118.788ZM100.519 107.991L111.902 118.931V215.166H0.391722V107.991H100.519ZM0 0V107.614V107.928V215.229V215.543V322.843V323.157V430.457V430.771V538.072V538.386V646H111.967H112.294H223.935H224.261H335.902H336.228H447.869H448.196H559.836H560.163H671.804H672.13H783.771H784.098H895.738H896.065H1007.71H1008.03H1120L1120 538.386V430.771V430.457V322.843V215.543V107.928V107.614V0H1008.03H1007.71H896.065H895.738H784.098H783.771H672.13H671.804H560.163H559.836H448.196H447.869H336.228H335.902H224.261H223.935H112.294H111.967H0ZM224.326 0.376493H335.837V107.552H224.326V0.376493ZM447.804 0.376493H336.294V107.552H447.804V0.376493ZM448.261 0.376493H559.772V107.552H448.261V0.376493ZM671.739 0.376493H560.228V107.552H671.739V0.376493ZM672.196 0.376493H783.706V107.552H672.196V0.376493ZM895.673 0.376493H784.163V107.552H895.673V0.376493ZM896.13 0.376493H1007.64V107.552H896.13V0.376493ZM1119.61 0.376493H1008.1V107.552H1119.61V0.376493ZM224.326 107.991H335.837V215.166H224.326V107.991ZM447.804 107.991H336.294V215.166L447.804 215.642V204.386V107.991ZM459.298 215.166L447.804 215.642L448.261 107.991H559.772V215.166H459.298ZM448.261 215.642H459.793L459.755 215.605H559.772V322.78H448.261V215.642ZM436.131 215.605L436.093 215.642H447.804V322.78H336.294V215.605H436.131ZM671.739 107.991H560.228V215.166H671.739V107.991ZM672.196 107.991H783.706V215.166H672.196V107.991ZM895.673 107.991H784.163V215.166H895.673V107.991ZM896.13 107.991H1007.64V185.432L1007.45 185.614L976.704 215.166H896.13V107.991ZM976.247 215.605H896.131V312.222L896.505 311.862L907.865 322.78H1007.64V245.852L1007.45 245.669L976.512 215.933L976.209 215.642L976.247 215.605ZM1007.64 245.27L976.814 215.642L976.852 215.605H995.942L995.904 215.642L1007.64 226.922V245.27ZM1008.1 245.63V322.78H1119.61V215.605H1039.26L1039.3 215.642L1039 215.933L1008.1 245.63ZM1038.66 215.605L1038.69 215.642L1008.1 245.048V226.701L1019.6 215.642L1019.57 215.605H1038.66ZM1038.8 215.166H1119.61V107.991H1008.1V185.654L1038.8 215.166ZM1008.1 186.236L1038.2 215.166H1019.11L1008.1 204.583V186.236ZM1007.64 186.014L977.309 215.166H996.399L1007.64 204.361V186.014ZM896.13 334.28L896.505 334.641L908.355 323.251L908.322 323.219H1007.64V430.395H896.13V334.28ZM884.688 323.219L884.655 323.251L895.673 333.841V430.395H784.163V323.219H884.688ZM895.673 312.661L885.145 322.78H784.163V215.605H895.673V312.661ZM0.391722 215.605H111.902V322.78H0.391722V215.605ZM223.869 215.605H112.359V322.78H223.869V215.605ZM224.326 215.605H335.837V322.78H224.326V215.605ZM671.739 215.605H560.229V322.78H671.739V215.605ZM672.196 215.605H783.706V322.78H672.196V215.605ZM0.391722 323.219H111.902V430.395H0.391722V323.219ZM223.869 323.219H112.359V430.395H193.059L192.914 430.255L193.216 429.964L223.869 400.503V323.219ZM223.869 401.084L193.519 430.255L193.664 430.395H212.753L212.608 430.255L223.869 419.432V401.084ZM224.326 418.993V400.645L224.458 400.518L255.398 430.255L255.253 430.395H236.164L236.309 430.255L224.458 418.866L224.326 418.993ZM224.326 441.518L224.458 441.645L235.707 430.834H254.796L224.458 459.992L224.326 459.865V441.518ZM213.21 430.834L223.869 441.079V459.426L194.121 430.834H213.21ZM193.516 430.834H112.359V538.009H223.869V460.008L193.516 430.834ZM224.326 460.447V538.009H335.837V430.834H255.401L224.761 460.283L224.458 460.574L224.326 460.447ZM255.858 430.395H335.837V323.219H224.326V400.064L224.458 399.937L224.761 400.228L255.701 429.964L256.003 430.255L255.858 430.395ZM447.804 323.219H336.294V430.395H447.804V323.219ZM448.261 323.219H559.772V430.395H448.261V323.219ZM671.739 323.219H560.228V430.395H671.739V323.219ZM672.196 323.219H783.706V430.395H672.196V323.219ZM1119.61 323.219H1008.1V430.395H1119.61V323.219ZM0.391722 430.834H111.902V538.009H0.391722V430.834ZM447.804 430.834H336.294V538.009H447.804V430.834ZM448.261 430.834H559.772V538.009H448.261V430.834ZM671.739 430.834H560.228V538.009H671.739V430.834ZM672.196 430.834H783.706V538.009H672.196V430.834ZM895.673 430.834H784.163V538.009H895.673V430.834ZM896.13 430.834H1007.64V538.009H896.13V430.834ZM1119.61 430.834H1008.1V538.009H1119.61V430.834ZM0.391722 538.448H111.902V645.623H0.391722V538.448ZM223.869 538.448H112.359V645.623H223.869V538.448ZM224.326 538.448H335.837V645.623H224.326V538.448ZM447.804 538.448H336.294V645.623H447.804V538.448ZM448.261 538.448H559.772V645.623H448.261V538.448ZM671.739 538.448H560.228V645.623H671.739V538.448ZM672.196 538.448H783.706V645.623H672.196V538.448ZM895.673 538.448H784.163V645.623H895.673V538.448ZM896.13 538.448H1007.64V645.623H896.13V538.448ZM1119.61 538.448H1008.1V645.623H1119.61V538.448Z" fill="url(#paint0_radial_1460_2515)" fill-opacity="0.25"></path><defs><radialGradient id="paint0_radial_1460_2515" cx="0" cy="0" r="1" gradientUnits="userSpaceOnUse" gradientTransform="translate(560 -362.582) rotate(90) scale(927.189 1607.51)"><stop></stop><stop offset="1" stop-opacity="0"></stop></radialGradient></defs></svg> 